classDiagram
    class PanelPlugin
    class PanelProps~T~ {
        Options options
        data
        ...
    }
    class CorePanel {
        <<component>>
        PanelProps~Options~ props
        systemState
    }
    class GlobalView {
        <<component>>
        systemState
    }
    class RegionView {
        <<component>>
        systemState
    }
    class DataSource {
        <<external>>
    }
    class TreeView {
        <<component>>
        systemState
        links
    }
    class SystemState {
        balancers[]
    }
    class Legend {
        <<component>>
        systemState
    }
    class ForceGraph {
        <<component>>
        systemState
        links
    }

    SystemState *-- CorePanel
    PanelOptions "1" --* "1" PanelPlugin : Defines UI for
    PanelOptions "1" .. "1" Options : Defines structure of
    PanelProps "1" --> "1" CorePanel : Is input of
    Options "1" --* "1" PanelProps : wrapped by
    DataSource "1" --> "1" PanelProps : Feeds
    PanelPlugin "1" *-- "1" CorePanel : Provides
    CorePanel "1" *-- "0..1" GlobalView : Renders
    CorePanel "1" *-- "0..1" RegionView : Renders
    CorePanel "1" *-- "0..1" TreeDisplay : Renders
    CorePanel "1" *-- "1" Legend : Renders
    GlobalView "1" *-- "1" ForceGraph : Renders
    RegionView "1" *-- "1" ForceGraph : Renders


    %% FIXME: not supported on mermaid 10.6, requires upgrading to 10.7
    %% style DataSource stroke:,stroke-dasharray:5 5
    %% style PanelProps stroke:,stroke-dasharray:5 5
    %% style PanelPlugin stroke:,stroke-dasharray:5 5
    %% style PanelOptions stroke:,stroke-dasharray:5 5
